# xmcd
# 
# Track frame offsets:
#     150
#     20708
#     43313
#     64418
#     89108
#     109298
#     130913
#     148043
#     168346
#     196261
#     211651
#     229494
#     243174
#     264392
#     291257
# 
# Disc length: 4280
# 
# Revision: 0
# Processed by: cddbd v1.5.2PL0 Copyright (c) Steve Scherf et al.
# Submitted via: fre:ac v1.0.31
# 
DISCID=eb10b60f
DTITLE=Santana - The best Instrumentals
DYEAR=1997
DGENRE=Instrumental
TTITLE0=Samba Pa Ti
TTITLE1=Europa (Earth큦 Cry Heavens큦 Smile)
TTITLE2=I Love You Much Too Much
TTITLE3=Aqua Marine
TTITLE4=Bella
TTITLE5=Flor D퀽una (Moonflower)
TTITLE6=Life Is A Lady Holiday
TTITLE7=Full Moon
TTITLE8=Song Of The Wind
TTITLE9=Tales Of Kilimanjaro
TTITLE10=Loves Is You
TTITLE11=Gurus큦 Song
TTITLE12=Treat
TTITLE13=Blues For Salvador
TTITLE14=Soul Sacrifice
EXTD=
EXTT0=
EXTT1=
EXTT2=
EXTT3=
EXTT4=
EXTT5=
EXTT6=
EXTT7=
EXTT8=
EXTT9=
EXTT10=
EXTT11=
EXTT12=
EXTT13=
EXTT14=
PLAYORDER=
